<svg xmlns="http://www.w3.org/2000/svg" version="1.1" xmlns:xlink="http://www.w3.org/1999/xlink" xmlns:svgjs="http://svgjs.dev/svgjs" width="1000" height="525" viewBox="0 0 1000 525"><g transform="matrix(1,0,0,1,-0.6060606060606233,0.5033410327694128)"><svg viewBox="0 0 396 208" data-background-color="#ffffff" preserveAspectRatio="xMidYMid meet" height="525" width="1000" xmlns="http://www.w3.org/2000/svg" xmlns:xlink="http://www.w3.org/1999/xlink"><g id="tight-bounds" transform="matrix(1,0,0,1,0.2400000000000091,-0.1994172262473768)"><svg viewBox="0 0 395.52 208.39883614970645" height="208.39883614970645" width="395.52"><g><svg viewBox="0 0 397.4975999999999 209.44083033045496" height="208.39883614970645" width="395.52"><g><rect width="397.4975999999999" height="3.894454217268326" x="0" y="117.61991501727776" fill="#d9bca9" opacity="1" stroke-width="0" stroke="transparent" fill-opacity="1" class="rect-o-0" data-fill-palette-color="primary" rx="1%" id="o-0" data-palette-color="#d9bca9"></rect></g><g transform="matrix(1,0,0,1,0.9887999999999693,131.70927556247364)"><svg viewBox="0 0 395.52 77.73155476798132" height="77.73155476798132" width="395.52"><g id="textblocktransform"><svg viewBox="0 0 395.52 77.73155476798132" height="77.73155476798132" width="395.52" id="textblock"><g><svg viewBox="0 0 395.52 43.18484864165588" height="43.18484864165588" width="395.52"><g transform="matrix(1,0,0,1,0,0)"><svg width="395.52" viewBox="0.6600000262260437 -30.65999984741211 282.22998046875 30.899999618530273" height="43.18484864165588" data-palette-color="#d9bca9"><g class="wordmark-text-0" data-fill-palette-color="primary" id="text-0"><path d="M9.96 0.07Q8.35 0.07 8.2-0.61L8.2-0.61 0.78-29.13Q0.76-29.25 0.71-29.44 0.66-29.64 0.66-29.74L0.66-29.74Q0.66-30.08 1.12-30.29 1.59-30.49 2.54-30.49L2.54-30.49 2.95-30.49Q3.66-30.49 4.13-30.32 4.59-30.15 4.69-29.79L4.69-29.79 10.21-8.42Q10.35-7.79 10.84-5.18L10.84-5.18Q10.96-4.42 10.99-4.37L10.99-4.37Q11.52-6.62 12.04-8.54L12.04-8.54 17.29-29.74Q17.46-30.49 18.97-30.49L18.97-30.49 19.65-30.49Q21.19-30.49 21.36-29.74L21.36-29.74 26.73-8.37Q26.98-7.42 27.21-6.1 27.44-4.79 27.49-4.37L27.49-4.37Q28-6.47 28.54-8.5L28.54-8.5 33.79-29.79Q33.96-30.49 35.5-30.49L35.5-30.49 35.77-30.49Q37.62-30.49 37.62-29.74L37.62-29.74Q37.62-29.57 37.5-29.13L37.5-29.13 30-0.61Q29.81 0.07 28.25 0.07L28.25 0.07 26.49 0.07Q24.9 0.07 24.76-0.61L24.76-0.61 20-18.29 19.12-23.93 18.19-18.29 13.45-0.61Q13.31 0.07 11.74 0.07L11.74 0.07 9.96 0.07ZM40.67 0.07Q39.69 0.07 39.26-0.11 38.82-0.29 38.82-0.66L38.82-0.66Q38.82-0.83 38.94-1.25L38.94-1.25 49.22-29.79Q49.46-30.49 50.95-30.49L50.95-30.49 52.22-30.49Q53.71-30.49 53.95-29.79L53.95-29.79 64.23-1.22Q64.35-0.95 64.35-0.66L64.35-0.66Q64.35 0.07 62.52 0.07L62.52 0.07 62.16 0.07Q60.64 0.07 60.4-0.61L60.4-0.61 57.86-7.74 45.11-7.74 42.62-0.61Q42.4 0.07 40.89 0.07L40.89 0.07 40.67 0.07ZM46.31-11.04L56.69-11.04 52.15-23.95Q51.95-24.49 51.83-25.17 51.71-25.85 51.61-26.49L51.61-26.49 51.51-26.49Q51.22-24.85 50.85-23.95L50.85-23.95 46.31-11.04ZM75.48 0.24Q73.09 0.24 71.03-0.28 68.96-0.81 67.73-1.55 66.5-2.29 66.5-2.91L66.5-2.91Q66.5-3.25 66.78-3.81 67.06-4.37 67.43-4.81 67.79-5.25 68.01-5.25L68.01-5.25Q68.21-5.25 68.87-4.86L68.87-4.86Q70.38-4.08 71.87-3.56 73.36-3.05 75.48-3.05L75.48-3.05Q77.14-3.05 78.44-3.69 79.73-4.32 80.45-5.48 81.17-6.64 81.17-8.15L81.17-8.15Q81.17-9.77 80.31-10.83 79.44-11.89 78.21-12.51 76.97-13.13 74.63-14.06L74.63-14.06Q72.09-15.04 70.61-15.88 69.14-16.72 68.1-18.33 67.06-19.95 67.06-22.61L67.06-22.61Q67.06-24.93 68.26-26.77 69.45-28.61 71.65-29.64 73.85-30.66 76.7-30.66L76.7-30.66Q78-30.66 79.66-30.31 81.32-29.96 82.5-29.35 83.69-28.74 83.69-28L83.69-28Q83.69-27.69 83.43-27.14 83.17-26.59 82.83-26.15 82.49-25.71 82.29-25.71L82.29-25.71Q82.08-25.71 81.42-26.07L81.42-26.07Q80.32-26.66 79.24-27.01 78.17-27.37 76.63-27.37L76.63-27.37Q74.12-27.37 72.57-26.07 71.02-24.78 71.02-22.46L71.02-22.46Q71.02-21.07 71.7-20.17 72.38-19.26 73.43-18.73 74.48-18.19 76.36-17.48L76.36-17.48Q76.48-17.46 76.92-17.29L76.92-17.29Q79.51-16.28 81.16-15.34 82.81-14.4 83.97-12.65 85.13-10.89 85.13-8.15L85.13-8.15Q85.13-5.59 83.94-3.69 82.76-1.78 80.57-0.77 78.39 0.24 75.48 0.24L75.48 0.24ZM98.41 0.07Q97.5 0.07 97.09-0.16 96.67-0.39 96.67-0.88L96.67-0.88 96.67-27.08 88.32-27.08Q87.86-27.08 87.66-27.39 87.47-27.71 87.47-28.37L87.47-28.37 87.47-29.08Q87.47-29.76 87.66-30.07 87.86-30.37 88.32-30.37L88.32-30.37 108.68-30.37Q109.15-30.37 109.34-30.07 109.54-29.76 109.54-29.08L109.54-29.08 109.54-28.37Q109.54-27.71 109.34-27.39 109.15-27.08 108.68-27.08L108.68-27.08 100.51-27.08 100.51-0.88Q100.51 0.07 98.75 0.07L98.75 0.07 98.41 0.07ZM115.93 0Q115.25 0 114.93-0.32 114.61-0.63 114.61-1.29L114.61-1.29 114.61-29.08Q114.61-29.76 114.93-30.07 115.25-30.37 115.93-30.37L115.93-30.37 131.07-30.37Q131.53-30.37 131.74-30.08 131.95-29.79 131.95-29.08L131.95-29.08 131.95-28.37Q131.95-27.71 131.74-27.39 131.53-27.08 131.07-27.08L131.07-27.08 118.45-27.08 118.45-17.19 129.78-17.19Q130.24-17.19 130.45-16.87 130.65-16.55 130.65-15.87L130.65-15.87 130.65-15.21Q130.65-14.53 130.45-14.22 130.24-13.92 129.78-13.92L129.78-13.92 118.45-13.92 118.45-3.3 131.12-3.3Q131.58-3.3 131.79-2.99 132-2.69 132-2L132-2 132-1.29Q132-0.63 131.79-0.32 131.58 0 131.12 0L131.12 0 115.93 0Z" fill="#d9bca9" data-fill-palette-color="primary"></path><path d="M148.38 0.07Q146.62 0.07 146.62-0.88L146.62-0.88 146.62-29.52Q146.62-30.49 148.38-30.49L148.38-30.49 148.72-30.49Q150.45-30.49 150.45-29.52L150.45-29.52 150.45-0.88Q150.45 0.07 148.72 0.07L148.72 0.07 148.38 0.07ZM165.27 0.24Q162.88 0.24 160.82-0.28 158.75-0.81 157.52-1.55 156.29-2.29 156.29-2.91L156.29-2.91Q156.29-3.25 156.57-3.81 156.85-4.37 157.21-4.81 157.58-5.25 157.8-5.25L157.8-5.25Q158-5.25 158.66-4.86L158.66-4.86Q160.17-4.08 161.66-3.56 163.15-3.05 165.27-3.05L165.27-3.05Q166.93-3.05 168.23-3.69 169.52-4.32 170.24-5.48 170.96-6.64 170.96-8.15L170.96-8.15Q170.96-9.77 170.09-10.83 169.23-11.89 167.99-12.51 166.76-13.13 164.42-14.06L164.42-14.06Q161.88-15.04 160.4-15.88 158.92-16.72 157.89-18.33 156.85-19.95 156.85-22.61L156.85-22.61Q156.85-24.93 158.04-26.77 159.24-28.61 161.44-29.64 163.64-30.66 166.49-30.66L166.49-30.66Q167.79-30.66 169.45-30.31 171.11-29.96 172.29-29.35 173.47-28.74 173.47-28L173.47-28Q173.47-27.69 173.22-27.14 172.96-26.59 172.62-26.15 172.28-25.71 172.08-25.71L172.08-25.71Q171.86-25.71 171.2-26.07L171.2-26.07Q170.11-26.66 169.03-27.01 167.96-27.37 166.42-27.37L166.42-27.37Q163.9-27.37 162.35-26.07 160.8-24.78 160.8-22.46L160.8-22.46Q160.8-21.07 161.49-20.17 162.17-19.26 163.22-18.73 164.27-18.19 166.15-17.48L166.15-17.48Q166.27-17.46 166.71-17.29L166.71-17.29Q169.3-16.28 170.95-15.34 172.6-14.4 173.76-12.65 174.91-10.89 174.91-8.15L174.91-8.15Q174.91-5.59 173.73-3.69 172.55-1.78 170.36-0.77 168.18 0.24 165.27 0.24L165.27 0.24ZM181.89 0Q181.21 0 180.89-0.32 180.58-0.63 180.58-1.29L180.58-1.29 180.58-29.52Q180.58-30.49 182.33-30.49L182.33-30.49 182.68-30.49Q184.41-30.49 184.41-29.52L184.41-29.52 184.41-3.3 196.35-3.3Q196.81-3.3 197.01-2.99 197.2-2.69 197.2-2L197.2-2 197.2-1.29Q197.2-0.63 197.01-0.32 196.81 0 196.35 0L196.35 0 181.89 0ZM199.76 0.07Q198.79 0.07 198.35-0.11 197.91-0.29 197.91-0.66L197.91-0.66Q197.91-0.83 198.03-1.25L198.03-1.25 208.31-29.79Q208.55-30.49 210.04-30.49L210.04-30.49 211.31-30.49Q212.8-30.49 213.04-29.79L213.04-29.79 223.32-1.22Q223.45-0.95 223.45-0.66L223.45-0.66Q223.45 0.07 221.61 0.07L221.61 0.07 221.25 0.07Q219.73 0.07 219.49-0.61L219.49-0.61 216.95-7.74 204.21-7.74 201.72-0.61Q201.5 0.07 199.98 0.07L199.98 0.07 199.76 0.07ZM205.4-11.04L215.78-11.04 211.24-23.95Q211.04-24.49 210.92-25.17 210.8-25.85 210.7-26.49L210.7-26.49 210.6-26.49Q210.31-24.85 209.94-23.95L209.94-23.95 205.4-11.04ZM229.64 0.07Q228.72 0.07 228.3-0.16 227.89-0.39 227.89-0.88L227.89-0.88 227.89-29.52Q227.89-30.49 229.64-30.49L229.64-30.49 230.55-30.49Q231.23-30.49 231.63-30.3 232.04-30.1 232.35-29.66L232.35-29.66 246.22-8.74 247.51-6.3 247.51-29.52Q247.51-30.49 249.22-30.49L249.22-30.49 249.57-30.49Q251.27-30.49 251.27-29.52L251.27-29.52 251.27-0.88Q251.27-0.39 250.86-0.16 250.44 0.07 249.57 0.07L249.57 0.07 248.69 0.07Q248.08 0.07 247.71-0.07 247.34-0.22 247.15-0.54L247.15-0.54 232.84-22.12 231.67-24.37 231.67-0.88Q231.67 0.07 229.94 0.07L229.94 0.07 229.64 0.07ZM260.7 0Q260.01 0 259.69-0.32 259.38-0.63 259.38-1.29L259.38-1.29 259.38-29.08Q259.38-29.76 259.69-30.07 260.01-30.37 260.7-30.37L260.7-30.37 269.46-30.37Q275.56-30.37 279.23-26.76 282.89-23.14 282.89-15.21L282.89-15.21Q282.89-7.23 279.23-3.61 275.56 0 269.46 0L269.46 0 260.7 0ZM263.21-3.3L269.17-3.3Q273.56-3.3 276.25-6.16 278.93-9.03 278.93-15.21L278.93-15.21Q278.93-19.36 277.66-22.01 276.39-24.66 274.2-25.87 272-27.08 269.17-27.08L269.17-27.08 263.21-27.08 263.21-3.3Z" fill="#7c4e29" data-fill-palette-color="secondary"></path></g></svg></g></svg></g><g transform="matrix(1,0,0,1,75.54432000000001,53.37975496958344)"><svg viewBox="0 0 244.43135999999996 24.35179979839788" height="24.35179979839788" width="244.43135999999996"><g transform="matrix(1,0,0,1,0,0)"><svg width="244.43135999999996" viewBox="-0.800000011920929 -36.349998474121094 374.8608703613281 37.349998474121094" height="24.35179979839788" data-palette-color="#7c4e29"><path d="M37.85-23.6L38.1-21.55 35.25-20.35 28.95-0.3Q26.9 0.35 24.5 0.35L24.5 0.35Q23.1 0.35 22.25 0.15L22.25 0.15 18.9-9.5 18.75-8.8 15.2-0.3Q13.5 0.3 10.9 0.3L10.9 0.3 8.6 0.15 2.05-20.25-0.8-21.05-0.75-23.6 10.6-23.6 10.85-21.55 8.2-20.4 11.45-9.55 12.65-4.25 13.05-4.25 17-15 14.4-22.4 20.1-23.3 24.7-9.55 25.65-4.25 26-4.25 29.65-20.4 26.65-21.05 26.7-23.6 37.85-23.6ZM61.95-4.2L62.55-2 57 0.8Q56.05 0.7 54.8-0.33 53.55-1.35 52.9-2.75L52.9-2.75 47.4 0.7 46.05 0.8Q43 0.8 41.02-1 39.05-2.8 39.05-5.35L39.05-5.35Q39.05-8.95 42.75-10.9L42.75-10.9 52.4-11.15 52.4-15.95Q52.4-19.95 50-21.2L50-21.2Q47.35-21.1 45.3-20.4L45.3-20.4 44.65-15.1 41.25-14.95Q39.9-17.75 40-21.45L40-21.45Q42.45-22.7 46.22-23.75 50-24.8 51.75-24.8L51.75-24.8Q53.45-24.8 55.12-23.73 56.8-22.65 57.7-21.25L57.7-21.25Q58.25-20.25 58.3-17.45L58.3-17.45 58.3-4.9Q58.3-3.85 59.55-3.85L59.55-3.85 61.95-4.2ZM46.2-3.3L46.2-3.3Q48.6-3.3 52.4-4.8L52.4-4.8 52.4-8.4 50.65-8.45Q45.05-8.45 45.05-5.55L45.05-5.55Q45.05-4.1 46.2-3.3ZM70.45-18.7L70.45-18.7Q70.45-17.2 71.7-16.28 72.95-15.35 75.55-14.2L75.55-14.2 78.9-12.5Q82.85-10.25 82.85-6.4L82.85-6.4Q82.85-3.15 80.3-1.07 77.75 1 73.7 1L73.7 1Q69.1 1 64.3-1.65L64.3-1.65 66.5-6.75Q71-3.5 76.1-2.5L76.1-2.5Q77.3-3.55 77.3-5.05L77.3-5.05Q77.3-6.45 76.27-7.43 75.25-8.4 71.5-10.1 67.75-11.8 66.4-13.43 65.05-15.05 65.05-17.2L65.05-17.2Q65.05-20.6 67.95-22.6 70.85-24.6 75.05-24.6L75.05-24.6Q78.9-24.6 81.9-23.05L81.9-23.05 81.95-23.05 82-21.85Q82-19.05 81.1-16.4L81.1-16.4 77.85-16.4 77.1-20.6Q74.45-21.45 72.15-21.3L72.15-21.3Q70.45-20.4 70.45-18.7ZM96.64-4.1L96.64-4.1Q97.99-4.1 101.04-5.05L101.04-5.05 101.69-2.65 94.64 0.8Q92.64 0.9 90.84-0.6 89.04-2.1 89.04-3.9L89.04-3.9 89.04-19.15 85.79-19.1 85.49-21.6Q87.54-22.75 89.29-23.35L89.29-23.35 91.49-29.75 94.39-29.75 94.79-23.5 101.79-23.5 101.94-21.7 99.54-19.05 94.89-19.05 94.89-6.65Q94.89-5.25 95.27-4.67 95.64-4.1 96.64-4.1ZM122.39-12.4L109.64-12.6Q109.64-8.35 111.87-6 114.09-3.65 117.54-3.65L117.54-3.65Q120.24-3.65 123.94-5.35L123.94-5.35 124.84-3 117.04 0.7Q111.24 1 107.52-2.45 103.79-5.9 103.79-11.45L103.79-11.45Q103.79-16.85 107.27-20.73 110.74-24.6 115.69-24.6L115.69-24.6Q119.89-24.6 122.62-21.98 125.34-19.35 125.29-15.2L125.29-15.2 122.39-12.4ZM113.54-21.2L113.54-21.2Q110.89-19.7 109.99-15.6L109.99-15.6 119.74-16.1Q119.34-18.4 117.62-19.83 115.89-21.25 113.54-21.2ZM147.59-28.3L147.59-28.3Q144.84-29.45 143.04-31.8L143.04-31.8Q144.54-34.8 146.74-36.35L146.74-36.35Q149.29-35.2 151.09-32.65L151.09-32.65Q149.94-29.85 147.59-28.3ZM150.24-22.45L150.24-3.6Q152.54-3.2 153.79-2.4L153.79-2.4 153.59 0 140.79 0 140.59-1.7Q142.04-2.45 144.39-3.15L144.39-3.15 144.39-20.35 140.64-20.4 140.14-22.8Q143.59-24.2 147.99-24.45L147.99-24.45 150.24-22.45ZM161.98-18.7L161.98-18.7Q161.98-17.2 163.23-16.28 164.48-15.35 167.08-14.2L167.08-14.2 170.43-12.5Q174.38-10.25 174.38-6.4L174.38-6.4Q174.38-3.15 171.83-1.07 169.28 1 165.23 1L165.23 1Q160.63 1 155.83-1.65L155.83-1.65 158.03-6.75Q162.53-3.5 167.63-2.5L167.63-2.5Q168.83-3.55 168.83-5.05L168.83-5.05Q168.83-6.45 167.81-7.43 166.78-8.4 163.03-10.1 159.28-11.8 157.93-13.43 156.58-15.05 156.58-17.2L156.58-17.2Q156.58-20.6 159.48-22.6 162.38-24.6 166.58-24.6L166.58-24.6Q170.43-24.6 173.43-23.05L173.43-23.05 173.48-23.05 173.53-21.85Q173.53-19.05 172.63-16.4L172.63-16.4 169.38-16.4 168.63-20.6Q165.98-21.45 163.68-21.3L163.68-21.3Q161.98-20.4 161.98-18.7ZM201.43-4.1L201.43-4.1Q202.78-4.1 205.83-5.05L205.83-5.05 206.48-2.65 199.43 0.8Q197.43 0.9 195.63-0.6 193.83-2.1 193.83-3.9L193.83-3.9 193.83-19.15 190.58-19.1 190.28-21.6Q192.33-22.75 194.08-23.35L194.08-23.35 196.28-29.75 199.18-29.75 199.58-23.5 206.58-23.5 206.73-21.7 204.33-19.05 199.68-19.05 199.68-6.65Q199.68-5.25 200.05-4.67 200.43-4.1 201.43-4.1ZM229.73-23.05L229.73-23.05Q229.83-18.75 228.38-14.25L228.38-14.25 225.13-14.25 224.33-19.85Q220.93-17.6 218.43-14.45L218.43-14.45 218.43-3.75Q222.18-3.25 223.63-2.4L223.63-2.4 223.43 0 209.08 0 208.88-1.7Q210.48-2.5 212.58-3.15L212.58-3.15 212.58-20.35 208.83-20.4 208.33-22.8Q211.78-24.2 216.18-24.45L216.18-24.45 218.43-22.45 218.43-18.2 223.53-23.75Q224.73-24.25 226.08-24.25L226.08-24.25Q228.23-24.25 229.73-23.05ZM249.07-12.4L236.32-12.6Q236.32-8.35 238.55-6 240.77-3.65 244.22-3.65L244.22-3.65Q246.92-3.65 250.62-5.35L250.62-5.35 251.52-3 243.72 0.7Q237.92 1 234.2-2.45 230.47-5.9 230.47-11.45L230.47-11.45Q230.47-16.85 233.95-20.73 237.42-24.6 242.37-24.6L242.37-24.6Q246.57-24.6 249.3-21.98 252.02-19.35 251.97-15.2L251.97-15.2 249.07-12.4ZM240.22-21.2L240.22-21.2Q237.57-19.7 236.67-15.6L236.67-15.6 246.42-16.1Q246.02-18.4 244.3-19.83 242.57-21.25 240.22-21.2ZM277.47-4.2L278.07-2 272.52 0.8Q271.57 0.7 270.32-0.33 269.07-1.35 268.42-2.75L268.42-2.75 262.92 0.7 261.57 0.8Q258.52 0.8 256.54-1 254.57-2.8 254.57-5.35L254.57-5.35Q254.57-8.95 258.27-10.9L258.27-10.9 267.92-11.15 267.92-15.95Q267.92-19.95 265.52-21.2L265.52-21.2Q262.87-21.1 260.82-20.4L260.82-20.4 260.17-15.1 256.77-14.95Q255.42-17.75 255.52-21.45L255.52-21.45Q257.97-22.7 261.75-23.75 265.52-24.8 267.27-24.8L267.27-24.8Q268.97-24.8 270.64-23.73 272.32-22.65 273.22-21.25L273.22-21.25Q273.77-20.25 273.82-17.45L273.82-17.45 273.82-4.9Q273.82-3.85 275.07-3.85L275.07-3.85 277.47-4.2ZM261.72-3.3L261.72-3.3Q264.12-3.3 267.92-4.8L267.92-4.8 267.92-8.4 266.17-8.45Q260.57-8.45 260.57-5.55L260.57-5.55Q260.57-4.1 261.72-3.3ZM285.97-18.7L285.97-18.7Q285.97-17.2 287.22-16.28 288.47-15.35 291.07-14.2L291.07-14.2 294.42-12.5Q298.37-10.25 298.37-6.4L298.37-6.4Q298.37-3.15 295.82-1.07 293.27 1 289.22 1L289.22 1Q284.62 1 279.82-1.65L279.82-1.65 282.02-6.75Q286.52-3.5 291.62-2.5L291.62-2.5Q292.82-3.55 292.82-5.05L292.82-5.05Q292.82-6.45 291.79-7.43 290.77-8.4 287.02-10.1 283.27-11.8 281.92-13.43 280.57-15.05 280.57-17.2L280.57-17.2Q280.57-20.6 283.47-22.6 286.37-24.6 290.57-24.6L290.57-24.6Q294.42-24.6 297.42-23.05L297.42-23.05 297.47-23.05 297.52-21.85Q297.52-19.05 296.62-16.4L296.62-16.4 293.37-16.4 292.62-20.6Q289.97-21.45 287.67-21.3L287.67-21.3Q285.97-20.4 285.97-18.7ZM328.81-4.2L329.42-2 323.87 0.8Q322.81 0.7 321.51-0.5 320.21-1.7 319.67-3.2L319.67-3.2Q314.67 0.2 310.51 0.8L310.51 0.8Q308.96 0.55 307.39-0.55 305.81-1.65 305.17-2.93 304.51-4.2 304.51-8.1L304.51-8.1 304.51-20.35 300.81-20.4 300.31-22.8Q303.81-24.25 308.17-24.45L308.17-24.45 308.17-24.4 310.37-22.45 310.37-7.85Q310.51-3.8 313.62-3.8L313.62-3.8Q315.96-3.8 319.31-5.7L319.31-5.7 319.31-20.35 315.87-20.45 315.37-22.85Q318.87-24.35 322.92-24.45L322.92-24.45 325.17-22.45 325.17-4.9Q325.17-3.85 326.46-3.85L326.46-3.85 328.81-4.2ZM351.81-23.05L351.81-23.05Q351.91-18.75 350.46-14.25L350.46-14.25 347.21-14.25 346.41-19.85Q343.01-17.6 340.51-14.45L340.51-14.45 340.51-3.75Q344.26-3.25 345.71-2.4L345.71-2.4 345.51 0 331.16 0 330.96-1.7Q332.56-2.5 334.66-3.15L334.66-3.15 334.66-20.35 330.91-20.4 330.41-22.8Q333.86-24.2 338.26-24.45L338.26-24.45 340.51-22.45 340.51-18.2 345.61-23.75Q346.81-24.25 348.16-24.25L348.16-24.25Q350.31-24.25 351.81-23.05ZM371.16-12.4L358.41-12.6Q358.41-8.35 360.63-6 362.86-3.65 366.31-3.65L366.31-3.65Q369.01-3.65 372.71-5.35L372.71-5.35 373.61-3 365.81 0.7Q360.01 1 356.28-2.45 352.56-5.9 352.56-11.45L352.56-11.45Q352.56-16.85 356.03-20.73 359.51-24.6 364.46-24.6L364.46-24.6Q368.66-24.6 371.38-21.98 374.11-19.35 374.06-15.2L374.06-15.2 371.16-12.4ZM362.31-21.2L362.31-21.2Q359.66-19.7 358.76-15.6L358.76-15.6 368.51-16.1Q368.11-18.4 366.38-19.83 364.66-21.25 362.31-21.2Z" opacity="1" transform="matrix(1,0,0,1,0,0)" fill="#7c4e29" class="slogan-text-1" data-fill-palette-color="secondary" id="text-1"></path></svg></g></svg></g></svg></g></svg></g><g transform="matrix(1,0,0,1,145.09218710757224,0)"><svg viewBox="0 0 107.31322578485543 107.42500868935021" height="107.42500868935021" width="107.31322578485543"><g><svg xmlns="http://www.w3.org/2000/svg" xmlns:xlink="http://www.w3.org/1999/xlink" version="1.1" x="0" y="0" viewBox="21.000001907348633 20.950000762939453 48 48.04999923706055" enable-background="new 0 0 90 90" xml:space="preserve" height="107.42500868935021" width="107.31322578485543" class="icon-icon-0" data-fill-palette-color="accent" id="icon-0"><path d="M65 21.6c-0.4 0-0.7 0.1-1.1 0.2L53 24.9l-15-3.8c-0.7-0.2-1.4-0.2-2.1 0l-12 3.4c-1.7 0.5-2.9 2.1-2.9 3.9v36c0 2.2 1.8 4 4 4 0.4 0 0.7-0.1 1.1-0.2L37 65.1l15 3.8c0.3 0.1 0.6 0.1 1 0.1 0.4 0 0.7-0.1 1.1-0.2l12-3.4c1.7-0.5 2.9-2.1 2.9-3.8v-36C69 23.4 67.2 21.6 65 21.6zM65 61.6L53 65l-15-3.8c-0.3-0.1-0.6-0.1-1-0.1-0.4 0-0.7 0.1-1.1 0.2L25 64.4l0-36L37 25l15 3.8c0.7 0.2 1.4 0.2 2.1 0L65 25.6V61.6z" fill="#7c4e29" data-fill-palette-color="accent"></path><path d="M40.4 33.6c-0.8-0.8-2-0.8-2.8 0L35 36.2l-2.6-2.6c-0.8-0.8-2-0.8-2.8 0s-0.8 2 0 2.8l2.6 2.6-2.6 2.6c-0.8 0.8-0.8 2 0 2.8C30 44.8 30.5 45 31 45s1-0.2 1.4-0.6l2.6-2.6 2.6 2.6C38 44.8 38.5 45 39 45s1-0.2 1.4-0.6c0.8-0.8 0.8-2 0-2.8L37.8 39l2.6-2.6C41.2 35.6 41.2 34.4 40.4 33.6z" fill="#7c4e29" data-fill-palette-color="accent"></path><path d="M52.6 54.2c-0.9-0.7-2.1-0.5-2.8 0.4s-0.5 2.1 0.4 2.8c1 0.7 1.7 1.2 1.7 1.2 0.3 0.2 0.7 0.3 1.1 0.3 0.6 0 1.3-0.3 1.7-0.9 0.6-0.9 0.4-2.2-0.6-2.8C54.1 55.3 53.4 54.9 52.6 54.2z" fill="#7c4e29" data-fill-palette-color="accent"></path><path d="M52.2 36.1c-0.5 1-0.1 2.2 0.9 2.7 1 0.5 1.8 1.1 2.5 1.7C56 40.8 56.5 41 57 41c0.5 0 1-0.2 1.4-0.6 0.8-0.8 0.7-2.1-0.1-2.8-0.9-0.9-2.1-1.7-3.5-2.4C53.9 34.7 52.7 35.1 52.2 36.1z" fill="#7c4e29" data-fill-palette-color="accent"></path><path d="M50.8 49c0-1.1-1-2-2-2-4.1 0.1-4.6 2.3-4.6 3.2 0 0.3 0.1 0.7 0.2 1.1 0.3 0.9 1.1 1.5 2 1.5 0.2 0 0.4 0 0.6-0.1 0.8-0.3 1.3-0.9 1.4-1.7 0.1 0 0.3 0 0.5 0C50 51 50.8 50.1 50.8 49z" fill="#7c4e29" data-fill-palette-color="accent"></path><path d="M56.7 44.9c-0.2 0.4-0.5 0.9-1.5 1.3-1 0.4-1.5 1.6-1.1 2.6 0.3 0.8 1.1 1.2 1.8 1.2 0.3 0 0.5 0 0.8-0.2 1.8-0.7 3-1.9 3.7-3.5 0.4-1-0.1-2.2-1.1-2.6C58.3 43.4 57.1 43.8 56.7 44.9z" fill="#7c4e29" data-fill-palette-color="accent"></path><path d="M46.8 37.1c0.1 0 0.1 0 0.2 0 1 0 1.9-0.8 2-1.8 0.1-1.1-0.7-2.1-1.8-2.2C46.5 33 45.7 33 45 33c-1.1 0-2 0.9-2 2s0.9 2 2 2C45.6 37 46.2 37 46.8 37.1z" fill="#7c4e29" data-fill-palette-color="accent"></path></svg></g></svg></g><g></g></svg></g><defs></defs></svg><rect width="395.52" height="208.39883614970645" fill="none" stroke="none" visibility="hidden"></rect></g></svg></g></svg>